# xmcd CD database file
#
# Track frame offsets:
#	192
#	3037
#	13745
#	19462
#	36822
#	48962
#	62830
#	75477
#	98867
#	115267
#	129852
#
# Disc length: 1937 seconds
#
# Revision: 2
# Processed by: cddbd v1.5PL3 Copyright (c) Steve Scherf et al.
# Submitted via: CDex 1.51
#
DISCID=7d078f0b
DTITLE=Sass O' Frass Tunic - As Blue As the State Allows
DYEAR=1992
DGENRE=Gospel
TTITLE0=Which One Are You?
TTITLE1=Mr. Tumbleweed
TTITLE2=Jesus Lifted Me
TTITLE3=Stop Wha'cha Doin'
TTITLE4=Don't Walk on By
TTITLE5=Will The Circle Be Unbroken
TTITLE6=Don'cha Be Afraid
TTITLE7=The Lord Is a Well
TTITLE8=Love
TTITLE9=Hounddog
TTITLE10=My World is Falling Down
EXTD=YEAR: 1992
EXTT0=
EXTT1=
EXTT2=
EXTT3=
EXTT4=
EXTT5=
EXTT6=
EXTT7=
EXTT8=
EXTT9=
EXTT10=
PLAYORDER=
